<svg width="25" height="34" viewBox="0 0 25 34" fill="none" xmlns="http://www.w3.org/2000/svg">
<rect width="25" height="34" fill="#A27146"/>
<path d="M12.5 28.8056C12.9375 28.7955 13.3573 28.631 13.6852 28.3413C14.0131 28.0515 14.2279 27.6551 14.2917 27.2222H10.6389C10.7045 27.6669 10.9294 28.0726 11.2718 28.3638C11.6141 28.6551 12.0506 28.8121 12.5 28.8056Z" fill="#F1DAAE"/>
<path d="M22.8125 24.5347L22.5764 24.3264C21.9065 23.7296 21.3202 23.0452 20.8333 22.2917C20.3015 21.2518 19.9828 20.1162 19.8958 18.9514V15.5209C19.893 15.1042 19.8558 14.6884 19.7847 14.2778C18.6084 14.036 17.5518 13.3952 16.7937 12.4638C16.0357 11.5323 15.6228 10.3676 15.625 9.16669V8.72919C14.8999 8.37238 14.1209 8.13774 13.3194 8.03475V7.15975C13.3194 6.91387 13.2218 6.67806 13.0479 6.5042C12.874 6.33034 12.6382 6.23267 12.3923 6.23267C12.1465 6.23267 11.9107 6.33034 11.7368 6.5042C11.5629 6.67806 11.4653 6.91387 11.4653 7.15975V8.06947C9.67062 8.32263 8.02816 9.21652 6.84111 10.5861C5.65406 11.9557 5.00258 13.7085 5.00693 15.5209V18.9514C4.91996 20.1162 4.60122 21.2518 4.06943 22.2917C3.59088 23.0433 3.01401 23.7276 2.35415 24.3264L2.11804 24.5347V26.4931H22.8125V24.5347Z" fill="#F1DAAE"/>
<path d="M20.8333 12.6389C22.751 12.6389 24.3055 11.0843 24.3055 9.16668C24.3055 7.24902 22.751 5.69446 20.8333 5.69446C18.9157 5.69446 17.3611 7.24902 17.3611 9.16668C17.3611 11.0843 18.9157 12.6389 20.8333 12.6389Z" fill="#FB452D"/>
</svg>
